HIERARCHY
ROOT Hips
{
  OFFSET 0.000000 0.000000 0.000000
  CHANNELS 6 Xposition Yposition Zposition Zrotation Xrotation Yrotation
  JOINT LeftUpLeg
  {
    OFFSET 0.065432 -0.099661 -0.020582
    CHANNELS 3 Zrotation Xrotation Yrotation
    JOINT LeftLeg
    {
      OFFSET 0.056970 -0.345381 0.044166
      CHANNELS 3 Zrotation Xrotation Yrotation
      JOINT LeftFoot
      {
        OFFSET -0.052934 -0.375423 -0.109712
        CHANNELS 3 Zrotation Xrotation Yrotation
        JOINT LeftToeBase
        {
          OFFSET 0.068388 -0.064312 0.103537
          CHANNELS 3 Zrotation Xrotation Yrotation
          End Site
          {
            OFFSET 0 0 0.1
          }
        }
      }
    }
  }
  JOINT RightUpLeg
  {
    OFFSET -0.067776 -0.121819 -0.013444
    CHANNELS 3 Zrotation Xrotation Yrotation
    JOINT RightLeg
    {
      OFFSET -0.045917 -0.327397 0.068270
      CHANNELS 3 Zrotation Xrotation Yrotation
      JOINT RightFoot
      {
        OFFSET 0.003570 -0.396248 -0.103802
        CHANNELS 3 Zrotation Xrotation Yrotation
        JOINT RightToeBase
        {
          OFFSET -0.030147 -0.052765 0.117660
          CHANNELS 3 Zrotation Xrotation Yrotation
          End Site
          {
            OFFSET 0 0 0.1
          }
        }
      }
    }
  }
  JOINT Spine
  {
    OFFSET 0.000045 0.078755 -0.026575
    CHANNELS 3 Zrotation Xrotation Yrotation
    JOINT Spine1
    {
      OFFSET 0.018121 0.143084 0.044955
      CHANNELS 3 Zrotation Xrotation Yrotation
      JOINT Spine2
      {
        OFFSET 0.004261 0.069518 0.010841
        CHANNELS 3 Zrotation Xrotation Yrotation
        JOINT Neck
        {
          OFFSET -0.000134 0.186032 0.008825
          CHANNELS 3 Zrotation Xrotation Yrotation
          JOINT RightArm
          {
            OFFSET 0.020542 0.056567 0.060932
            CHANNELS 3 Zrotation Xrotation Yrotation
            End Site
            {
              OFFSET 0 0 0.1
            }
          }
        }
        JOINT RightShoulder
        {
          OFFSET 0.069293 0.099220 -0.003690
          CHANNELS 3 Zrotation Xrotation Yrotation
          JOINT LeftArm
          {
            OFFSET 0.114310 -0.008887 -0.016547
            CHANNELS 3 Zrotation Xrotation Yrotation
            JOINT LeftForeArm
            {
              OFFSET 0.048013 -0.234416 0.007784
              CHANNELS 3 Zrotation Xrotation Yrotation
              JOINT LeftHand
              {
                OFFSET -0.007529 -0.161387 0.050731
                CHANNELS 3 Zrotation Xrotation Yrotation
                End Site
                {
                  OFFSET 0 0 0.1
                }
              }
            }
          }
        }
        JOINT LeftShoulder
        {
          OFFSET -0.073321 0.118213 0.008872
          CHANNELS 3 Zrotation Xrotation Yrotation
          JOINT RightForeArm
          {
            OFFSET -0.111503 -0.009509 -0.005039
            CHANNELS 3 Zrotation Xrotation Yrotation
            JOINT RightHand
            {
              OFFSET -0.065941 -0.216917 -0.051007
              CHANNELS 3 Zrotation Xrotation Yrotation
              JOINT LeftHandEnd
              {
                OFFSET 0.046242 -0.160800 0.091727
                CHANNELS 3 Zrotation Xrotation Yrotation
                End Site
                {
                  OFFSET 0 0 0.1
                }
              }
            }
          }
        }
      }
    }
  }
}
MOTION
Frames: 5
Frame Time: 0.05000000
0.000000 0.950439 0.000000 -0.000000 0.000000 0.000000 -55.809720 -5.218157 9.835951 63.963651 -13.846844 -8.479539 -17.934753 23.170325 2.859523 -0.091107 11.262958 32.183730 60.598591 -3.225495 -5.517120 -67.512021 -15.581253 4.379634 8.771673 26.336719 -1.075738 2.296664 8.817400 -13.666701 -0.032400 -18.646380 -0.005319 -8.469047 35.788394 3.932563 3.542939 -8.498963 0.276786 3.535854 -6.131010 0.275134 7.355725 -44.033114 19.095158 55.042848 0.910244 1.746868 30.632533 6.539990 -8.650079 -74.110289 -11.420579 -5.642138 -14.161702 -15.579816 -0.123679 -58.061613 -2.027200 3.651677 -26.823407 6.039901 0.024984 67.868293 9.519315 3.426453 36.667941 -40.233924 11.027586
-0.008413 0.954401 0.006447 -0.000000 0.000000 -5.828175 -55.714535 -10.119827 13.192671 64.363513 -13.235419 -8.572972 -17.505297 22.375609 2.595199 -0.559000 11.878177 32.341345 60.525592 1.986614 -2.424079 -67.256739 -15.145663 4.214097 8.564832 25.947472 -1.035699 2.198737 9.373608 -13.091731 2.006805 -18.440076 6.153959 -8.566908 36.279784 3.980586 3.796932 -9.602142 0.324346 2.955483 -5.298166 0.203146 7.254427 -44.253968 18.079362 54.681655 5.670013 5.113676 31.445688 5.681391 -7.922477 -71.706784 -11.962154 -4.445936 -17.436430 -23.472976 -0.096489 -57.711244 -7.224651 7.243654 -28.151244 6.065515 -0.595379 65.338878 9.017684 3.255879 42.402082 -45.926958 13.131389
-0.009484 0.946424 0.002309 -0.000000 0.000000 -5.937115 -55.424528 -10.270271 13.479246 64.512875 -13.512369 -8.677986 -18.087560 22.875189 2.704841 -0.509402 11.377916 32.551982 60.596183 2.255862 -2.077337 -67.528821 -15.458720 3.874393 9.022013 26.347810 -1.188440 2.033750 8.959281 -13.745212 1.893397 -18.973229 6.253534 -7.775100 36.513513 3.718908 3.810308 -9.144804 0.368907 2.632507 -6.152002 0.190665 7.292957 -43.738078 18.639233 54.229312 6.012272 5.774326 29.776750 7.204104 -9.884977 -74.448950 -10.660299 -6.780824 -8.211430 -7.362683 0.086132 -57.928630 -7.029104 6.726518 -25.783614 6.294342 0.304494 67.304502 10.110113 3.730570 29.418587 -34.949244 7.432568
0.003750 0.950052 -0.004300 -0.000000 0.000000 -6.050313 -55.719471 -10.251475 13.212686 64.275480 -13.701032 -8.457391 -18.186091 22.800783 2.892576 0.356370 11.050862 32.244142 60.632929 2.238551 -2.222954 -67.537283 -15.557123 4.063340 8.156799 25.937427 -0.896035 2.647379 9.723694 -12.718656 1.812394 -18.188451 6.340448 -8.766478 35.891360 4.100118 5.203885 -10.790596 0.597588 1.810362 -4.572335 0.094375 7.862106 -43.971432 19.135741 53.971566 6.032510 5.765323 32.606621 7.409259 -10.277738 -72.154493 -11.321888 -6.371378 -13.205241 -15.707714 0.139236 -57.569132 -7.597792 7.732294 -29.303722 6.907067 -0.266487 66.244175 7.413299 3.346534 37.649679 -44.705472 10.127459
-0.000713 0.946289 0.009770 -0.000000 0.000000 -6.167756 -55.474288 -10.609191 13.859399 64.136810 -13.914510 -8.967643 -18.089872 22.676550 2.809414 0.051083 10.980974 32.743596 60.596734 2.439302 -1.994333 -67.408544 -15.759620 3.905197 8.336955 26.407297 -1.004345 2.286484 9.181641 -12.390308 1.671811 -18.644729 6.442215 -8.087746 36.479512 3.924011 5.325343 -10.971824 0.668488 1.230781 -4.408018 0.056552 7.843302 -43.925564 19.002543 53.582545 6.068350 5.817434 31.613045 6.728325 -9.376574 -71.932029 -10.883105 -5.807736 -12.868365 -15.654640 0.112427 -57.532492 -7.637644 7.697057 -28.259292 6.592463 -0.485285 66.287980 9.694359 3.531920 35.432651 -41.301026 9.581175
